# Blender 3.4.1
# www.blender.org
mtllib Fence.mtl
o Fence_noimp
v 8.594840 1.293005 14.555985
v 8.594840 0.035469 14.555985
v 8.594840 1.293005 11.909849
v 8.594840 0.035469 11.909849
v 8.594840 1.293005 11.909849
v 8.594840 0.035469 11.909849
v 8.594840 1.293005 9.263712
v 8.594840 0.035469 9.263712
v 8.594840 1.293005 9.263712
v 8.594840 0.035469 9.263712
v 8.594840 1.293005 6.617576
v 8.594840 0.035469 6.617576
v 8.594840 1.293005 6.617576
v 8.594840 0.035469 6.617576
v 8.594840 1.293005 3.971439
v 8.594840 0.035469 3.971439
v 8.594840 1.293005 3.971439
v 8.594840 0.035469 3.971439
v 8.594840 1.293005 1.325303
v 8.594840 0.035469 1.325303
v 8.594840 1.293005 1.325303
v 8.594840 0.035469 1.325303
v 8.594840 1.293005 -1.320833
v 8.594840 0.035469 -1.320833
v 8.594840 1.293005 -1.320833
v 8.594840 0.035469 -1.320833
v 8.594840 1.293005 -3.966969
v 8.594840 0.035469 -3.966969
v 8.594840 1.293005 -3.966969
v 8.594840 0.035469 -3.966969
v 8.594840 1.293005 -6.613107
v 8.594840 0.035469 -6.613107
v 8.594840 1.293005 -6.613107
v 8.594840 0.035469 -6.613107
v 8.594840 1.293005 -9.259244
v 8.594840 0.035469 -9.259244
v 8.594840 1.293005 -9.259244
v 8.594840 0.035469 -9.259244
v 8.594840 1.293005 -11.905381
v 8.594840 0.035469 -11.905381
v 8.594840 1.293005 -11.905381
v 8.594840 0.035469 -11.905381
v 8.594840 1.293005 -14.551518
v 8.594840 0.035469 -14.551518
v 8.594840 2.600843 14.555985
v 8.594840 1.343307 14.555985
v 8.594840 2.600843 11.909849
v 8.594840 1.343307 11.909849
v 8.594840 2.600843 11.909849
v 8.594840 1.343307 11.909849
v 8.594840 2.600843 9.263712
v 8.594840 1.343307 9.263712
v 8.594840 2.600843 9.263712
v 8.594840 1.343307 9.263712
v 8.594840 2.600843 6.617576
v 8.594840 1.343307 6.617576
v 8.594840 2.600843 6.617576
v 8.594840 1.343307 6.617576
v 8.594840 2.600843 3.971439
v 8.594840 1.343307 3.971439
v 8.594840 2.600843 3.971439
v 8.594840 1.343307 3.971439
v 8.594840 2.600843 1.325303
v 8.594840 1.343307 1.325303
v 8.594840 2.600843 1.325303
v 8.594840 1.343307 1.325303
v 8.594840 2.600843 -1.320833
v 8.594840 1.343307 -1.320833
v 8.594840 2.600843 -1.320833
v 8.594840 1.343307 -1.320833
v 8.594840 2.600843 -3.966969
v 8.594840 1.343307 -3.966969
v 8.594840 2.600843 -3.966969
v 8.594840 1.343307 -3.966969
v 8.594840 2.600843 -6.613107
v 8.594840 1.343307 -6.613107
v 8.594840 2.600843 -6.613107
v 8.594840 1.343307 -6.613107
v 8.594840 2.600843 -9.259244
v 8.594840 1.343307 -9.259244
v 8.594840 2.600843 -9.259244
v 8.594840 1.343307 -9.259244
v 8.594840 2.600843 -11.905381
v 8.594840 1.343307 -11.905381
v 8.594840 2.600843 -11.905381
v 8.594840 1.343307 -11.905381
v 8.594840 2.600843 -14.551518
v 8.594840 1.343307 -14.551518
vn 1.0000 -0.0000 -0.0000
vt -0.008301 0.734289
vt -0.008301 0.216495
vt 1.081254 0.734289
vt 1.081254 0.216495
vt -0.008301 0.734289
vt -0.008301 0.216495
vt 1.081254 0.734289
vt 1.081254 0.216495
vt -0.008301 0.734289
vt -0.008301 0.216495
vt 1.081254 0.734289
vt 1.081254 0.216495
vt -0.008301 0.734289
vt -0.008301 0.216495
vt 1.081254 0.734289
vt 1.081254 0.216495
vt -0.008301 0.734289
vt -0.008301 0.216495
vt 1.081254 0.734289
vt 1.081254 0.216495
vt -0.008301 0.734289
vt -0.008301 0.216495
vt 1.081254 0.734289
vt 1.081254 0.216495
vt -0.008301 0.734289
vt -0.008301 0.216495
vt 1.081254 0.734289
vt 1.081254 0.216495
vt -0.008301 0.734289
vt -0.008301 0.216495
vt 1.081254 0.734289
vt 1.081254 0.216495
vt -0.008301 0.734289
vt -0.008301 0.216495
vt 1.081254 0.734289
vt 1.081254 0.216495
vt -0.008301 0.734289
vt -0.008301 0.216495
vt 1.081254 0.734289
vt 1.081254 0.216495
vt -0.008301 0.734289
vt -0.008301 0.216495
vt 1.081254 0.734289
vt 1.081254 0.216495
vt -0.008301 0.734289
vt -0.008301 0.216495
vt 1.081254 0.734289
vt 1.081254 0.216495
vt -0.008301 0.734289
vt -0.008301 0.216495
vt 1.081254 0.734289
vt 1.081254 0.216495
vt -0.008301 0.734289
vt -0.008301 0.216495
vt 1.081254 0.734289
vt 1.081254 0.216495
vt -0.008301 0.734289
vt -0.008301 0.216495
vt 1.081254 0.734289
vt 1.081254 0.216495
vt -0.008301 0.734289
vt -0.008301 0.216495
vt 1.081254 0.734289
vt 1.081254 0.216495
vt -0.008301 0.734289
vt -0.008301 0.216495
vt 1.081254 0.734289
vt 1.081254 0.216495
vt -0.008301 0.734289
vt -0.008301 0.216495
vt 1.081254 0.734289
vt 1.081254 0.216495
vt -0.008301 0.734289
vt -0.008301 0.216495
vt 1.081254 0.734289
vt 1.081254 0.216495
vt -0.008301 0.734289
vt -0.008301 0.216495
vt 1.081254 0.734289
vt 1.081254 0.216495
vt -0.008301 0.734289
vt -0.008301 0.216495
vt 1.081254 0.734289
vt 1.081254 0.216495
vt -0.008301 0.734289
vt -0.008301 0.216495
vt 1.081254 0.734289
vt 1.081254 0.216495
s 0
usemtl Material.001
f 1/1/1 2/2/1 4/4/1 3/3/1
f 5/5/1 6/6/1 8/8/1 7/7/1
f 9/9/1 10/10/1 12/12/1 11/11/1
f 13/13/1 14/14/1 16/16/1 15/15/1
f 17/17/1 18/18/1 20/20/1 19/19/1
f 21/21/1 22/22/1 24/24/1 23/23/1
f 25/25/1 26/26/1 28/28/1 27/27/1
f 29/29/1 30/30/1 32/32/1 31/31/1
f 33/33/1 34/34/1 36/36/1 35/35/1
f 37/37/1 38/38/1 40/40/1 39/39/1
f 41/41/1 42/42/1 44/44/1 43/43/1
f 45/45/1 46/46/1 48/48/1 47/47/1
f 49/49/1 50/50/1 52/52/1 51/51/1
f 53/53/1 54/54/1 56/56/1 55/55/1
f 57/57/1 58/58/1 60/60/1 59/59/1
f 61/61/1 62/62/1 64/64/1 63/63/1
f 65/65/1 66/66/1 68/68/1 67/67/1
f 69/69/1 70/70/1 72/72/1 71/71/1
f 73/73/1 74/74/1 76/76/1 75/75/1
f 77/77/1 78/78/1 80/80/1 79/79/1
f 81/81/1 82/82/1 84/84/1 83/83/1
f 85/85/1 86/86/1 88/88/1 87/87/1
